P2
4 3
255
0 70 87 93
0 15 35 0
100 3 0 0